<svg xmlns="http://www.w3.org/2000/svg" width="62" height="36" viewBox="0 0 62 36">
  <defs>
    <style>
      .cls-1 {
        fill: #0651d3;
        fill-rule: evenodd;
      }
    </style>
  </defs>
  <path id="Shape" class="cls-1" d="M48.753,34.381c-0.6.326-1.741,1.116-2.361,0.922-1.126-.354-0.239-2.483-0.014-3.2,0.244-.771.508-1.606,0.642-2.26,0.284-1.061-1-.824-2.072-0.991-6.923-1.081-12.52-6.747-12.52-13.917C32.43,6.9,39.836.417,47.754,0.842A14.465,14.465,0,0,1,61.379,12.625C63.31,22.131,56.7,30.079,48.753,34.381ZM47.613,5.567c-5.692,0-10.8,4.305-10.8,10.172a0.524,0.524,0,0,0,1.049,0c0-5.29,4.637-9.124,9.753-9.124A0.524,0.524,0,0,0,47.613,5.567ZM16.353,34.381c-0.6.326-1.741,1.116-2.361,0.922-1.126-.354-0.239-2.483-0.014-3.2,0.243-.771.507-1.606,0.642-2.26,0.284-1.061-1-.824-2.072-0.991C5.626,27.772.03,22.106,0.03,14.936,0.03,6.9,7.436.417,15.354,0.842A14.465,14.465,0,0,1,28.979,12.625C30.91,22.131,24.3,30.079,16.353,34.381ZM15.213,5.567c-5.692,0-10.8,4.305-10.8,10.172a0.524,0.524,0,0,0,1.049,0c0-5.29,4.637-9.124,9.753-9.124A0.524,0.524,0,0,0,15.213,5.567Z"/>
</svg>
